<svg xmlns="http://www.w3.org/2000/svg" viewBox="0 0 437.54 204.14"><defs><style>.cls-1{fill:#101116;}.cls-2{fill:#e6d9c9;}</style></defs><title>typeface1</title><g id="Layer_2" data-name="Layer 2"><g id="Layer_16" data-name="Layer 16"><path class="cls-1" d="M385.1,12.71a28.6,28.6,0,0,1-2.39,1.79,33.57,33.57,0,0,1-21.11,5.6c-12.48-.78-22.93-8.7-34.87-9.74-13.23-1.14-25.83,1.84-39,1.7-11-.12-21.92-3.35-32.9-2.53S233.06,15.26,222,14.58c-7.44-.46-14.27-3.44-20.9-6.65-5.4-2.61-11.07-1.51-16.7.62-8.4,3.19-14.71,10.13-22.12,15.21C137.8,40.48,104.62,35.1,76.82,24.91c-9.75-3.58-19.56-7.72-29.94-8.1s-21.72,4-26.28,13.31c-7.47,15.31,6.23,35.12-1.89,50.1-3,5.46-8.35,9.14-12.16,14-8.7,11.19-8,27.44-2.27,40.41,6.91,15.74,20.15,28.08,35.1,36.56S71,184.66,87.7,188.76c65.18,16,133.56,20.27,199.77,9.19,24.25-4.06,50.53-11.77,63.71-32.52,5.35-8.42,8.23-18.6,15.48-25.45,10.64-10.07,27.11-9.9,40.65-15.5,21.42-8.85,34.42-34.36,29-56.89-3.17-13.16-11.7-24.77-13.53-38.18-.86-6.32-.19-12.75-.8-19.09,0-6-1.35-8.5-7.17-9.71a28.38,28.38,0,0,0-14,.58C393.67,3.34,390.19,8.51,385.1,12.71Z"/><path class="cls-2" d="M408.14,19.49c-3.16-2.07-8.75,1.25-12.29,3.48-4.26,2.69-7.45,7.78-6.33,12.71,1,4.17,4.56,7.09,7.5,10.2s5.49,7.59,3.72,11.49-7,5-11.43,4.74a42.2,42.2,0,0,1-23.05-8.56c-3-2.27-6-5.07-9.69-5.2-5.48-.2-9.39,5.51-10.43,10.9C344.08,70,349.28,81.43,358,88s20.4,8.62,31.16,6.71c13.93-2.48,27.57-13.27,28-27.4.27-8.45-3.85-16.71-6.7-24.47C408,36,411.93,28.15,410,22.11A4.76,4.76,0,0,0,408.14,19.49Z"/><path class="cls-2" d="M325.54,51c-1.42,9.13,1.34,18.36,4.48,27.05s6.72,17.44,7.05,26.68c.57,15.89-8.91,30.88-21.57,40.5s-28.18,14.64-43.61,18.47A367,367,0,0,1,52.79,150c-9.65-3.72-19.88-8.51-24.63-17.71-3.69-7.11-3.37-15.55-3-23.55.21-4.12.81-8.92,4.36-11C32.47,96.05,36.32,97,39,99s4.58,4.92,6.65,7.59c9.16,11.86,22.77,19.7,37.07,24.19s29.38,5.88,44.34,6.79a743.92,743.92,0,0,0,164.11-8.2c11.84-1.92,25.61-5.7,29.76-17,3.62-9.81-2.11-20.56-8.92-28.5S296.86,68.74,293.8,58.75c-3.67-12,2.23-26.23,13.33-32.11,7.35-3.89,21.34-4.88,27.9,1.54,4.77,4.66.91,5.45-2.79,9.27A25.18,25.18,0,0,0,325.54,51Z"/><path class="cls-2" d="M295.39,90l-8.21-34.3C284.12,42.93,278,26.49,263,23.85c-13.07-2.32-29.22,3.58-36.66,14.61-8.46,12.54-6.64,31,4.11,41.64,9.91,9.82,25,12.33,38.93,11.83,3.86-.14,9.28,1,8.92,4.86-.24,2.54-3.12,3.86-5.58,4.54a85.92,85.92,0,0,1-52.28-2c-7.63-2.79-15.9-6.72-23.49-3.82a15.33,15.33,0,0,0-9.47,13.31,17.09,17.09,0,0,0,7.56,14.69c5.93,4,13.57,4,20.7,3.77a431.84,431.84,0,0,0,56.06-5.73c9.53-1.61,20.48-4.7,24.09-13.67C298.18,102.23,296.8,95.9,295.39,90ZM268,73.61c-.84,1.46-1.94,2.62-3.18,2.82-3,.49-7.09-4.23-9-6.13a48.45,48.45,0,0,1-11.52-18.21c-1.6-4.55-2.92-9.18,2.17-12.08,4.1-2.34,7.91-.51,10.4,3.25,4.79,7.25,12,15,12.9,24A12.73,12.73,0,0,1,268,73.61Z"/><path class="cls-2" d="M180.08,41.87c1.12,5.35,4.75,10.71,2.82,15.82-1.61,4.27-6.41,6.26-10.76,7.62a174,174,0,0,1-62.72,7.37,176.28,176.28,0,0,1-32-5A78,78,0,0,1,58.18,60.1C54.8,58.2,46.34,50,42.55,54.88c-1.44,1.85-1.39,4.43-1.12,6.76.87,7.76,3.2,16.57,7.68,23.09,3.66,5.34,11.35,8.8,17.86,10.53,8.72,2.31,17.84,2.51,26.87,2.69,28.71.59,57.68,1.15,85.86-4.41,5.94-1.17,12-2.67,17.05-6s9.16-8.68,9.42-14.74c.49-11.35-12-21.33-8.73-32.22,1.74-5.83,11.6-20.84-2.18-19.79C185.8,21.55,178.21,33,180.08,41.87Z"/><path class="cls-2" d="M159.78,121.76a39.59,39.59,0,0,1-32.49-7.39,9.78,9.78,0,0,1-3.56-4.36c-.58-1.81,0-4.14,1.81-4.88a6,6,0,0,1,2.31-.3c7.88,0,20-2.29,27.46.12C159.33,106.25,163.73,120.78,159.78,121.76Z"/></g></g></svg>